<?xml version="1.0" encoding="UTF-8"?>
<svg version="1.1" xmlns="http://www.w3.org/2000/svg" width="500" height="500">
<path d="M0 0 C1.25926048 -0.01007584 1.25926048 -0.01007584 2.54396057 -0.02035522 C5.31794155 -0.03934588 8.09168072 -0.04325995 10.86572266 -0.04541016 C12.79619445 -0.05183733 14.72666527 -0.05856564 16.65713501 -0.06558228 C20.70390074 -0.0775577 24.75058108 -0.08126282 28.79736328 -0.08007812 C33.97815875 -0.07987492 39.15840577 -0.10717748 44.33907127 -0.14162254 C48.3265534 -0.16388022 52.3139033 -0.16791601 56.30144119 -0.16685867 C58.21118688 -0.16921632 60.12093612 -0.17804905 62.03062057 -0.19352341 C64.70439609 -0.21316053 67.37698588 -0.20735454 70.05078125 -0.1953125 C71.22926888 -0.21217102 71.22926888 -0.21217102 72.43156433 -0.22937012 C77.60843613 -0.17024318 80.55118989 0.86913016 84.65478516 4.29052734 C87.09173301 7.94594912 86.94379709 10.6693853 86.92944336 14.89550781 C86.93455429 15.66820007 86.93966522 16.44089233 86.94493103 17.23699951 C86.95884266 19.7939832 86.9578689 22.35069778 86.95556641 24.90771484 C86.9594529 26.68506979 86.96378747 28.4624238 86.96855164 30.23977661 C86.97601753 33.96717335 86.97572021 37.69447537 86.97045898 41.421875 C86.96466835 46.19579846 86.98158365 50.96933344 87.00480366 55.74319267 C87.01954564 59.41495018 87.02041199 63.08661429 87.01729393 66.75839615 C87.01780706 68.51823826 87.0230432 70.2780856 87.03310585 72.03789902 C87.04546003 74.50110743 87.03868469 76.96356123 87.02709961 79.42675781 C87.03474335 80.15212738 87.04238708 80.87749695 87.05026245 81.62484741 C87.00461936 86.02152539 86.37275606 88.80613584 83.65478516 92.29052734 C79.78563331 94.86996191 76.58597511 94.57130118 72.10009766 94.54931641 C71.2266571 94.55282104 70.35321655 94.55632568 69.45330811 94.55993652 C66.56205328 94.5687492 63.67104253 94.5629063 60.77978516 94.55615234 C58.77343702 94.55749913 56.7670892 94.55943977 54.76074219 94.56195068 C50.55416764 94.56490132 46.34767797 94.56060622 42.14111328 94.55126953 C36.74379723 94.53987506 31.34668008 94.54643485 25.94937134 94.55841446 C21.8058929 94.56563467 17.66246178 94.56334438 13.51898193 94.55815887 C11.52862525 94.55682283 9.5382643 94.55846853 7.5479126 94.56311798 C4.76831654 94.56818582 1.98904452 94.56046931 -0.79052734 94.54931641 C-1.61659485 94.55336487 -2.44266235 94.55741333 -3.29376221 94.56158447 C-7.16701275 94.53273114 -9.04703795 94.48931194 -12.34521484 92.29052734 C-12.34521484 91.63052734 -12.34521484 90.97052734 -12.34521484 90.29052734 C-13.00521484 90.29052734 -13.66521484 90.29052734 -14.34521484 90.29052734 C-15.96470495 87.718396 -16.38930235 86.61383576 -15.97021484 83.54052734 C-15.76396484 82.79802734 -15.55771484 82.05552734 -15.34521484 81.29052734 C-13.03521484 81.29052734 -10.72521484 81.29052734 -8.34521484 81.29052734 C-8.01521484 82.94052734 -7.68521484 84.59052734 -7.34521484 86.29052734 C20.70478516 85.96052734 48.75478516 85.63052734 77.65478516 85.29052734 C77.98478516 66.15052734 78.31478516 47.01052734 78.65478516 27.29052734 C47.30478516 27.29052734 15.95478516 27.29052734 -16.34521484 27.29052734 C-16.34521484 9.29052734 -16.34521484 9.29052734 -12.34521484 2.29052734 C-8.84232051 -0.58596881 -4.33325309 -0.00497341 0 0 Z M-7.3193512 9.5872345 C-9.01690744 12.40577224 -8.58160817 15.09921748 -8.34521484 18.29052734 C-6.55664422 20.07909797 -4.1439835 19.41043314 -1.76312256 19.41494751 C-0.96255432 19.41135223 -0.16198608 19.40775696 0.6628418 19.40405273 C1.50179489 19.40419876 2.34074799 19.40434479 3.2051239 19.40449524 C5.9917556 19.40379584 8.77832132 19.3960022 11.56494141 19.38818359 C13.49165307 19.38631951 15.41836521 19.38489556 17.34507751 19.38389587 C22.42665913 19.38006993 27.50821235 19.370239 32.58978271 19.35919189 C37.7709515 19.34897941 42.95212485 19.3443986 48.13330078 19.33935547 C58.30714141 19.3286168 68.48096093 19.31153947 78.65478516 19.29052734 C78.70878252 17.8325985 78.74757692 16.37410023 78.77978516 14.91552734 C78.80298828 14.10341797 78.82619141 13.29130859 78.85009766 12.45458984 C78.86848566 10.07710491 78.86848566 10.07710491 76.65478516 8.29052734 C74.0510645 8.08689471 71.55325357 8.00731877 68.94799805 8.01586914 C68.15273209 8.01075821 67.35746613 8.00564728 66.5381012 8.00038147 C63.9011387 7.98644625 61.26443642 7.98744519 58.62744141 7.98974609 C56.79902549 7.98586125 54.97061048 7.98152702 53.14219666 7.97676086 C49.3062752 7.96929015 45.47044577 7.96959602 41.63452148 7.97485352 C36.71352549 7.98064854 31.79290583 7.96372053 26.87197208 7.94050884 C23.09478037 7.92579216 19.3176797 7.92489699 15.5404644 7.92801857 C13.72593884 7.92750429 11.91140833 7.92224665 10.09691048 7.91220665 C7.5613457 7.8998997 5.02651934 7.90659904 2.4909668 7.91821289 C1.73813416 7.91056915 0.98530151 7.90292542 0.20965576 7.89505005 C-2.72282701 7.92480919 -4.82836343 7.95103462 -7.3193512 9.5872345 Z " fill="#0A78E4" transform="translate(370.34521484375,200.70947265625)"/>
<path d="M0 0 C4.51234183 2.2466912 6.09288411 4.70418569 7.984375 9.23828125 C10.05969511 20.89809501 9.08037661 33.44075063 8.984375 45.23828125 C4.364375 45.23828125 -0.255625 45.23828125 -5.015625 45.23828125 C-5.02980469 43.03527344 -5.04398437 40.83226562 -5.05859375 38.5625 C-5.08921288 36.42765997 -5.12830122 34.29313138 -5.16821289 32.15844727 C-5.19140189 30.67548648 -5.20579081 29.1923608 -5.21118164 27.70922852 C-5.22046613 25.57593947 -5.26143321 23.44524651 -5.30859375 21.3125 C-5.3243042 20.02947998 -5.34001465 18.74645996 -5.35620117 17.42456055 C-5.70023409 14.08061357 -5.70023409 14.08061357 -8.3918457 12.28833008 C-11.49749987 11.04543266 -12.90398449 11.06090376 -16.015625 12.23828125 C-18.10805824 15.37693111 -18.25462621 16.00289185 -18.17578125 19.5546875 C-18.16417969 20.39741211 -18.15257812 21.24013672 -18.140625 22.10839844 C-18.12 22.99688477 -18.099375 23.88537109 -18.078125 24.80078125 C-17.98915952 31.70301996 -18.10150383 38.3823725 -19.015625 45.23828125 C-23.305625 45.23828125 -27.595625 45.23828125 -32.015625 45.23828125 C-32.675625 34.67828125 -33.335625 24.11828125 -34.015625 13.23828125 C-38.56840423 10.86418789 -38.56840423 10.86418789 -41.703125 11.86328125 C-44.42277841 13.48037247 -44.91297128 14.3162489 -46.015625 17.23828125 C-46.22057 20.01050507 -46.22057 20.01050507 -46.078125 23.05078125 C-45.95116296 30.4992209 -46.44071819 37.81582367 -47.015625 45.23828125 C-50.975625 45.23828125 -54.935625 45.23828125 -59.015625 45.23828125 C-59.015625 30.38828125 -59.015625 15.53828125 -59.015625 0.23828125 C-55.055625 0.23828125 -51.095625 0.23828125 -47.015625 0.23828125 C-46.685625 0.89828125 -46.355625 1.55828125 -46.015625 2.23828125 C-45.04625 1.74328125 -44.076875 1.24828125 -43.078125 0.73828125 C-38.72525812 -1.11212775 -34.68784873 -1.4267433 -30.015625 -0.76171875 C-26.703125 0.73828125 -26.703125 0.73828125 -24.015625 2.23828125 C-20.06532492 2.23828125 -19.10604896 1.93714294 -15.828125 0.17578125 C-10.20217145 -2.42010208 -5.74516575 -2.17113822 0 0 Z " fill="#353E47" transform="translate(320.015625,232.76171875)"/>
<path d="M0 0 C4.29 0 8.58 0 13 0 C13 21.12 13 42.24 13 64 C8.71 64 4.42 64 0 64 C-0.33 63.34 -0.66 62.68 -1 62 C-1.94875 62.495 -2.8975 62.99 -3.875 63.5 C-9.07254404 65.70948228 -14.60924301 65.94760699 -20.0546875 64.42578125 C-23.35323021 63.08796028 -26.37767748 61.41253672 -29 59 C-29 58.34 -29 57.68 -29 57 C-29.66 57 -30.32 57 -31 57 C-35.61229943 45.98401698 -36.28439977 39.25113691 -31.875 28.08984375 C-31.58625 27.40019531 -31.2975 26.71054688 -31 26 C-30.34 26 -29.68 26 -29 26 C-28.773125 25.401875 -28.54625 24.80375 -28.3125 24.1875 C-26.37007544 20.95012573 -23.71429168 19.52111592 -20.13671875 18.43359375 C-17.78290607 17.9559462 -15.5890964 17.7953845 -13.1875 17.75 C-12.37667969 17.72421875 -11.56585938 17.6984375 -10.73046875 17.671875 C-8 18 -8 18 -1 21 C-0.67 14.07 -0.34 7.14 0 0 Z M-19.4375 34.125 C-21.63108418 38.1611949 -21.90187977 41.5064236 -21 46 C-19.13926759 49.8861314 -16.52835336 51.75539196 -12.625 53.5625 C-8.13665743 54.10419652 -5.89748282 53.21621572 -2 51 C0.42160142 47.36759787 0.36032436 45.38887538 0.4375 41.0625 C0.47746094 39.83660156 0.51742187 38.61070312 0.55859375 37.34765625 C0.30729023 33.84678638 0.30729023 33.84678638 -2.37890625 31.6171875 C-8.8569599 27.62029598 -13.7569271 29.17270568 -19.4375 34.125 Z " fill="#2A353E" transform="translate(139,214)"/>
<path d="M0 0 C4.29 0 8.58 0 13 0 C13 21.12 13 42.24 13 64 C8.71 64 4.42 64 0 64 C0 63.01 0 62.02 0 61 C-0.53367188 61.28875 -1.06734375 61.5775 -1.6171875 61.875 C-8.79526984 65.45162234 -14.86604295 66.14040195 -22.625 64 C-23.800625 63.505 -23.800625 63.505 -25 63 C-25 62.34 -25 61.68 -25 61 C-26.32 60.34 -27.64 59.68 -29 59 C-29 58.34 -29 57.68 -29 57 C-29.66 57 -30.32 57 -31 57 C-34.96949202 47.51929362 -36.73221266 39.97651462 -33.03515625 30.140625 C-30.60187163 25.10877604 -27.43833345 21.31601857 -22.25 19.0625 C-14.13475052 16.56907411 -7.66928238 17.92903735 0 21 C-0.03552979 20.39937744 -0.07105957 19.79875488 -0.10766602 19.17993164 C-0.26468681 16.47440314 -0.41369797 13.76849243 -0.5625 11.0625 C-0.64661133 9.64420898 -0.64661133 9.64420898 -0.73242188 8.19726562 C-0.78076172 7.29814453 -0.82910156 6.39902344 -0.87890625 5.47265625 C-0.9260376 4.64000244 -0.97316895 3.80734863 -1.02172852 2.94946289 C-1 1 -1 1 0 0 Z M-18 32 C-20.63444029 35.03973879 -21.85662899 37.01688451 -22.4375 41 C-21.80055754 45.36760543 -20.83894716 48.51615988 -17.30078125 51.37109375 C-14.39833624 53.11027985 -12.22205849 54.15873714 -8.8046875 53.71484375 C-4.68472518 52.32378636 -2.23208944 50.8418994 0 47 C0.43549224 44.32084643 0.43549224 44.32084643 0.3125 41.5 C0.30669922 40.09234375 0.30669922 40.09234375 0.30078125 38.65625 C-0.00915632 35.91913898 -0.49023629 34.28997716 -2 32 C-7.96494165 28.44641774 -12.02623162 28.37500873 -18 32 Z " fill="#2F3942" transform="translate(88,214)"/>
<path d="M0 0 C6.46710057 -0.27590019 11.92767342 0.49449455 16.92578125 4.8515625 C23.8591085 12.25001862 24.9765625 17.78391396 24.9765625 28.15234375 C14.4165625 28.15234375 3.8565625 28.15234375 -7.0234375 28.15234375 C-6.3634375 30.13234375 -5.7034375 32.11234375 -5.0234375 34.15234375 C-4.3634375 34.15234375 -3.7034375 34.15234375 -3.0234375 34.15234375 C-3.0234375 34.81234375 -3.0234375 35.47234375 -3.0234375 36.15234375 C0.6065625 36.15234375 4.2365625 36.15234375 7.9765625 36.15234375 C7.9765625 35.49234375 7.9765625 34.83234375 7.9765625 34.15234375 C8.6365625 34.15234375 9.2965625 34.15234375 9.9765625 34.15234375 C9.9765625 33.49234375 9.9765625 32.83234375 9.9765625 32.15234375 C14.5965625 32.15234375 19.2165625 32.15234375 23.9765625 32.15234375 C23.00877795 37.52892459 21.51624754 40.49444968 17.15234375 43.85546875 C10.28132495 47.95094135 3.30036663 48.87460271 -4.4453125 47.08203125 C-10.4744879 44.90787406 -15.65480479 40.59398121 -19.0234375 35.15234375 C-21.82073866 27.69287399 -21.91368887 19.23646813 -19.1171875 11.71484375 C-15.85230723 5.89100326 -10.86052867 2.43137414 -4.5859375 0.33984375 C-3.05718699 0.22798396 -1.5285114 0.11508097 0 0 Z M-5.0234375 13.15234375 C-5.6834375 14.80234375 -6.3434375 16.45234375 -7.0234375 18.15234375 C-1.0834375 18.15234375 4.8565625 18.15234375 10.9765625 18.15234375 C10.3476237 14.26977153 10.3476237 14.26977153 8.3515625 12.40234375 C4.08724785 10.15796762 -1.1351034 10.1280839 -5.0234375 13.15234375 Z " fill="#2E3840" transform="translate(352.0234375,231.84765625)"/>
<path d="M0 0 C1.25926048 -0.01007584 1.25926048 -0.01007584 2.54396057 -0.02035522 C5.31794155 -0.03934588 8.09168072 -0.04325995 10.86572266 -0.04541016 C12.79619445 -0.05183733 14.72666527 -0.05856564 16.65713501 -0.06558228 C20.70390074 -0.0775577 24.75058108 -0.08126282 28.79736328 -0.08007812 C33.97815875 -0.07987492 39.15840577 -0.10717748 44.33907127 -0.14162254 C48.3265534 -0.16388022 52.3139033 -0.16791601 56.30144119 -0.16685867 C58.21118688 -0.16921632 60.12093612 -0.17804905 62.03062057 -0.19352341 C64.70439609 -0.21316053 67.37698588 -0.20735454 70.05078125 -0.1953125 C71.22926888 -0.21217102 71.22926888 -0.21217102 72.43156433 -0.22937012 C77.60843613 -0.17024318 80.55118989 0.86913016 84.65478516 4.29052734 C87.09173301 7.94594912 86.94379709 10.6693853 86.92944336 14.89550781 C86.93455429 15.66820007 86.93966522 16.44089233 86.94493103 17.23699951 C86.95884266 19.7939832 86.9578689 22.35069778 86.95556641 24.90771484 C86.9594529 26.68506979 86.96378747 28.4624238 86.96855164 30.23977661 C86.97601753 33.96717335 86.97572021 37.69447537 86.97045898 41.421875 C86.96466835 46.19579846 86.98158365 50.96933344 87.00480366 55.74319267 C87.01954564 59.41495018 87.02041199 63.08661429 87.01729393 66.75839615 C87.01780706 68.51823826 87.0230432 70.2780856 87.03310585 72.03789902 C87.04546003 74.50110743 87.03868469 76.96356123 87.02709961 79.42675781 C87.03474335 80.15212738 87.04238708 80.87749695 87.05026245 81.62484741 C87.00461936 86.02152539 86.37275606 88.80613584 83.65478516 92.29052734 C79.78563331 94.86996191 76.58597511 94.57130118 72.10009766 94.54931641 C71.2266571 94.55282104 70.35321655 94.55632568 69.45330811 94.55993652 C66.56205328 94.5687492 63.67104253 94.5629063 60.77978516 94.55615234 C58.77343702 94.55749913 56.7670892 94.55943977 54.76074219 94.56195068 C50.55416764 94.56490132 46.34767797 94.56060622 42.14111328 94.55126953 C36.74379723 94.53987506 31.34668008 94.54643485 25.94937134 94.55841446 C21.8058929 94.56563467 17.66246178 94.56334438 13.51898193 94.55815887 C11.52862525 94.55682283 9.5382643 94.55846853 7.5479126 94.56311798 C4.76831654 94.56818582 1.98904452 94.56046931 -0.79052734 94.54931641 C-1.61659485 94.55336487 -2.44266235 94.55741333 -3.29376221 94.56158447 C-7.16701275 94.53273114 -9.04703795 94.48931194 -12.34521484 92.29052734 C-12.34521484 91.63052734 -12.34521484 90.97052734 -12.34521484 90.29052734 C-13.00521484 90.29052734 -13.66521484 90.29052734 -14.34521484 90.29052734 C-15.96470495 87.718396 -16.38930235 86.61383576 -15.97021484 83.54052734 C-15.76396484 82.79802734 -15.55771484 82.05552734 -15.34521484 81.29052734 C-13.03521484 81.29052734 -10.72521484 81.29052734 -8.34521484 81.29052734 C-8.01521484 82.94052734 -7.68521484 84.59052734 -7.34521484 86.29052734 C20.70478516 85.96052734 48.75478516 85.63052734 77.65478516 85.29052734 C77.98478516 66.15052734 78.31478516 47.01052734 78.65478516 27.29052734 C47.30478516 27.29052734 15.95478516 27.29052734 -16.34521484 27.29052734 C-16.34521484 9.29052734 -16.34521484 9.29052734 -12.34521484 2.29052734 C-8.84232051 -0.58596881 -4.33325309 -0.00497341 0 0 Z M-8.34521484 2.29052734 C-8.61333984 2.92990234 -8.88146484 3.56927734 -9.15771484 4.22802734 C-10.34521484 6.29052734 -10.34521484 6.29052734 -13.34521484 7.29052734 C-13.34521484 7.95052734 -13.34521484 8.61052734 -13.34521484 9.29052734 C-14.00521484 9.29052734 -14.66521484 9.29052734 -15.34521484 9.29052734 C-15.34521484 14.90052734 -15.34521484 20.51052734 -15.34521484 26.29052734 C16.33478516 26.29052734 48.01478516 26.29052734 80.65478516 26.29052734 C80.65478516 43.12052734 80.65478516 59.95052734 80.65478516 77.29052734 C81.97478516 77.29052734 83.29478516 77.29052734 84.65478516 77.29052734 C84.77071683 68.38050807 84.85951894 59.47074903 84.91384602 50.56013966 C84.93992262 46.42239016 84.975284 42.28515726 85.03198242 38.14770508 C85.08637326 34.15357588 85.11622027 30.15994303 85.12917137 26.16547203 C85.13839875 24.64280064 85.15641832 23.12015595 85.18343544 21.5976963 C85.21982352 19.46191692 85.22472699 17.32817896 85.22241211 15.19213867 C85.23351517 13.97746414 85.24461823 12.76278961 85.25605774 11.51130676 C84.48769266 7.39547893 82.80259833 5.94521587 79.65478516 3.29052734 C79.15978516 2.79552734 79.15978516 2.79552734 78.65478516 2.29052734 C75.94640429 2.19538143 73.26360002 2.16497802 70.55493164 2.17700195 C69.28187164 2.17678291 69.28187164 2.17678291 67.98309326 2.17655945 C65.16399625 2.17725886 62.34496445 2.18505257 59.52587891 2.19287109 C57.57674699 2.19473517 55.62761461 2.19615912 53.67848206 2.19715881 C48.53771684 2.20098479 43.39697968 2.21081575 38.25622559 2.22186279 C33.01473368 2.2320752 27.77323726 2.23665607 22.53173828 2.24169922 C12.23940821 2.25243795 1.94709901 2.26951533 -8.34521484 2.29052734 Z " fill="#2889E3" transform="translate(370.34521484375,200.70947265625)"/>
<path d="M0 0 C0 0.66 0 1.32 0 2 C0.66 2 1.32 2 2 2 C4.16598375 6.3656939 4.26188911 10.37326176 4.1953125 15.14453125 C4.1924826 15.91431808 4.18965271 16.68410492 4.18673706 17.47721863 C4.17559157 19.92247425 4.15049781 22.36735612 4.125 24.8125 C4.1149629 26.47590615 4.10583833 28.13931807 4.09765625 29.80273438 C4.07567073 33.86863237 4.04118014 37.93425294 4 42 C0.04 42 -3.92 42 -8 42 C-8.33 41.34 -8.66 40.68 -9 40 C-9.763125 40.495 -10.52625 40.99 -11.3125 41.5 C-16.9471139 43.79204633 -22.50821446 44.01319023 -28.3828125 42.30859375 C-31.89637352 40.75925596 -33.71881196 39.38663355 -36 36.25 C-37.52300845 31.30022253 -37.92961749 27.15279841 -35.8125 22.25 C-31.09236015 16.39051605 -26.15079929 14.45253075 -18.8828125 13.66015625 C-15.92303328 13.40596345 -12.96483378 13.18499784 -10 13 C-10 11.35 -10 9.7 -10 8 C-14.3164922 7.23826608 -17.74433453 6.83936396 -22 8 C-22.33 9.32 -22.66 10.64 -23 12 C-27.29 12 -31.58 12 -36 12 C-36 6.39003033 -35.24479968 4.95822157 -31.890625 0.8046875 C-23.4729236 -7.23039111 -9.32743528 -5.02246515 0 0 Z M-17.25 23 C-18.58804688 23.2784375 -18.58804688 23.2784375 -19.953125 23.5625 C-20.96632812 23.7790625 -20.96632812 23.7790625 -22 24 C-22 24.66 -22 25.32 -22 26 C-22.66 26 -23.32 26 -24 26 C-24 27.65 -24 29.3 -24 31 C-21.47308285 32.65221506 -20.12096146 33.0051473 -17.0625 32.875 C-13.45054979 31.84301423 -11.58232136 30.72988258 -9 28 C-8.11406002 24.86136296 -8.11406002 24.86136296 -8 22 C-11.3674681 22 -13.99299978 22.31431574 -17.25 23 Z " fill="#343E46" transform="translate(252,236)"/>
<path d="M0 0 C1.1700097 3.91736581 0.69584017 6.97959015 0 11 C-1.423125 11.3403125 -1.423125 11.3403125 -2.875 11.6875 C-6.19323388 12.69083714 -6.19323388 12.69083714 -7.375 15.625 C-7.684375 16.800625 -7.684375 16.800625 -8 18 C-5.03 18 -2.06 18 1 18 C1 21.3 1 24.6 1 28 C-2.3 28 -5.6 28 -9 28 C-8.67 39.55 -8.34 51.1 -8 63 C-12.29 63 -16.58 63 -21 63 C-21.495 45.675 -21.495 45.675 -22 28 C-23.98 28 -25.96 28 -28 28 C-28 24.7 -28 21.4 -28 18 C-26.02 18 -24.04 18 -22 18 C-21.95101562 17.39671875 -21.90203125 16.7934375 -21.8515625 16.171875 C-21.73941406 14.97304687 -21.73941406 14.97304687 -21.625 13.75 C-21.55539063 12.96109375 -21.48578125 12.1721875 -21.4140625 11.359375 C-20.98492887 8.914123 -20.21399362 7.15163097 -19 5 C-18.34 5 -17.68 5 -17 5 C-17 4.34 -17 3.68 -17 3 C-11.06108578 0.4084738 -6.45892714 -0.40368295 0 0 Z " fill="#3A444D" transform="translate(183,215)"/>
<path d="M0 0 C-0.30871122 1.79232337 -0.62209064 3.58384321 -0.9375 5.375 C-1.19853516 6.87160156 -1.19853516 6.87160156 -1.46484375 8.3984375 C-2 11 -2 11 -3 13 C-4.98976525 13.44930183 -6.98232819 13.89361411 -8.9921875 14.2421875 C-11.74405434 15.28082985 -12.4913305 16.48336854 -14 19 C-14.50253145 21.9935686 -14.50253145 21.9935686 -14.51171875 25.296875 C-14.54716797 26.50214844 -14.58261719 27.70742188 -14.61914062 28.94921875 C-14.65297852 30.83060547 -14.65297852 30.83060547 -14.6875 32.75 C-14.72166016 34.01972656 -14.75582031 35.28945313 -14.79101562 36.59765625 C-14.87348414 39.73145999 -14.93841854 42.86571624 -15 46 C-19.29 46 -23.58 46 -28 46 C-28 31.15 -28 16.3 -28 1 C-23.71 1 -19.42 1 -15 1 C-15 1.66 -15 2.32 -15 3 C-14.01 2.505 -13.02 2.01 -12 1.5 C-7.86522766 -0.30103581 -4.46801547 -0.23515871 0 0 Z " fill="#353E46" transform="translate(216,232)"/>
<path d="M0 0 C4.29 0 8.58 0 13 0 C13 21.12 13 42.24 13 64 C8.71 64 4.42 64 0 64 C-0.33 62.35 -0.66 60.7 -1 59 C-0.01 59 0.98 59 2 59 C2 59.99 2 60.98 2 62 C2.99 62 3.98 62 5 62 C5.495 61.01 5.495 61.01 6 60 C6 60.66 6 61.32 6 62 C8.08008328 60.87213314 8.08008328 60.87213314 10 59 C10.61748923 56.40719842 10.61748923 56.40719842 10.54589844 53.42700195 C10.56561707 52.28604568 10.58533569 51.14508942 10.60565186 49.96955872 C10.60688049 48.73823715 10.60810913 47.50691559 10.609375 46.23828125 C10.62591125 44.97735153 10.64244751 43.71642181 10.65948486 42.4172821 C10.69987159 39.06830746 10.72316103 35.72009494 10.73822021 32.37097168 C10.75778424 28.95223482 10.79975482 25.53378126 10.83984375 22.11523438 C10.91390843 15.41022517 10.96544558 8.70532288 11 2 C8.03 2 5.06 2 2 2 C2.02618408 2.68102783 2.05236816 3.36205566 2.0793457 4.0637207 C2.18321531 7.14641289 2.24829317 10.22873759 2.3125 13.3125 C2.35439453 14.38435547 2.39628906 15.45621094 2.43945312 16.56054688 C2.45556641 17.58857422 2.47167969 18.61660156 2.48828125 19.67578125 C2.51446533 20.62364502 2.54064941 21.57150879 2.56762695 22.5480957 C2 25 2 25 -0.53051758 26.64526367 C-1.34544678 27.09232666 -2.16037598 27.53938965 -3 28 C-3 28.99 -3 29.98 -3 31 C-4.010625 30.773125 -5.02125 30.54625 -6.0625 30.3125 C-10.69424649 29.94490107 -12.97134009 30.75324736 -17 33 C-20.53154114 36.06066899 -20.52279406 39.74769246 -20.88671875 44.171875 C-20.92410156 44.77515625 -20.96148437 45.3784375 -21 46 C-24.34373475 45.44271087 -27.03312999 44.64826111 -30 43 C-29.67 41.68 -29.34 40.36 -29 39 C-31.03241727 39.63979849 -31.03241727 39.63979849 -33 41 C-33.81171228 43.55519921 -33.81171228 43.55519921 -34 46 C-34.33 46 -34.66 46 -35 46 C-35.4946164 38.45709983 -33.90617391 32.941085 -31 26 C-30.34 26 -29.68 26 -29 26 C-28.773125 25.401875 -28.54625 24.80375 -28.3125 24.1875 C-26.37007544 20.95012573 -23.71429168 19.52111592 -20.13671875 18.43359375 C-17.78290607 17.9559462 -15.5890964 17.7953845 -13.1875 17.75 C-12.37667969 17.72421875 -11.56585938 17.6984375 -10.73046875 17.671875 C-8 18 -8 18 -1 21 C-0.67 14.07 -0.34 7.14 0 0 Z " fill="#384148" transform="translate(139,214)"/>
<path d="M0 0 C0.86835983 -0.00014603 1.73671967 -0.00029205 2.63139343 -0.0004425 C5.50998406 0.00025579 8.38851048 0.00804429 11.26708984 0.01586914 C13.25963302 0.01773362 15.25217666 0.01915738 17.24472046 0.02015686 C22.49561829 0.0239797 27.74648856 0.03380802 32.99737549 0.04486084 C38.35290148 0.05507996 43.70843192 0.05965556 49.06396484 0.06469727 C59.5769978 0.07543048 70.09001028 0.09250412 80.60302734 0.11352539 C80.72677734 1.06227539 80.85052734 2.01102539 80.97802734 2.98852539 C81.31989912 6.2001973 81.31989912 6.2001973 83.60302734 8.11352539 C83.84353638 10.17630005 83.84353638 10.17630005 83.83007812 12.74682617 C83.82992706 13.7076712 83.829776 14.66851624 83.82962036 15.65847778 C83.81929779 16.69809662 83.80897522 17.73771545 83.79833984 18.80883789 C83.79550995 19.87141815 83.79268005 20.93399841 83.7897644 22.02877808 C83.77854374 25.43214038 83.75343571 28.83524225 83.72802734 32.23852539 C83.71799998 34.54190701 83.70887371 36.84529275 83.70068359 39.14868164 C83.67859827 44.80371884 83.64510223 50.45860352 83.60302734 56.11352539 C82.28302734 56.11352539 80.96302734 56.11352539 79.60302734 56.11352539 C79.27302734 39.28352539 78.94302734 22.45352539 78.60302734 5.11352539 C48.90302734 4.78352539 19.20302734 4.45352539 -11.39697266 4.11352539 C-11.06697266 3.12352539 -10.73697266 2.13352539 -10.39697266 1.11352539 C-7.14570493 -0.51210847 -3.57159291 -0.01556421 0 0 Z " fill="#017BEB" transform="translate(371.39697265625,221.886474609375)"/>
<path d="M0 0 C3.63 0.33 7.26 0.66 11 1 C11 1.99 11 2.98 11 4 C12.65 3.67 14.3 3.34 16 3 C15.319375 3.825 14.63875 4.65 13.9375 5.5 C11.81369943 8.71178262 11.92619622 10.81792452 12.6328125 14.625 C14.16088881 24.50872765 12.76881695 35.07402398 12 45 C8.04 45 4.08 45 0 45 C0 30.15 0 15.3 0 0 Z " fill="#2C3640" transform="translate(261,233)"/>
<path d="M0 0 C0.66 0 1.32 0 2 0 C3.2752564 3.82576921 3.42083122 7.49796269 3.71875 11.50390625 C3.8545027 13.99588427 3.8545027 13.99588427 5 16 C5.08426094 17.6674606 5.10725143 19.33825187 5.09765625 21.0078125 C5.09443359 21.99394531 5.09121094 22.98007812 5.08789062 23.99609375 C5.07951172 25.02863281 5.07113281 26.06117188 5.0625 27.125 C5.05798828 28.16527344 5.05347656 29.20554687 5.04882812 30.27734375 C5.03701967 32.85158687 5.01908385 35.42580053 5 38 C0.71 38 -3.58 38 -8 38 C-8 28.76 -8 19.52 -8 10 C-6.02 9.01 -4.04 8.02 -2 7 C-0.55032098 3.4306283 -0.55032098 3.4306283 0 0 Z " fill="#2D373F" transform="translate(324,240)"/>
<path d="M0 0 C0.99 0 1.98 0 3 0 C3 2.97 3 5.94 3 9 C0.03 9 -2.94 9 -6 9 C-5.67 20.55 -5.34 32.1 -5 44 C-8.96 44 -12.92 44 -17 44 C-17 32.45 -17 20.9 -17 9 C-16.67 10.32 -16.34 11.64 -16 13 C-15.05125 12.649375 -14.1025 12.29875 -13.125 11.9375 C-10 11 -10 11 -8 12 C-7.34 10.35 -6.68 8.7 -6 7 C-3.36 7 -0.72 7 2 7 C1.34 4.69 0.68 2.38 0 0 Z " fill="#263039" transform="translate(180,234)"/>
<path d="M0 0 C-0.495 0.7425 -0.99 1.485 -1.5 2.25 C-3.31923475 5.06318188 -3.31923475 5.06318188 -3 9 C-2.38125 9.12375 -1.7625 9.2475 -1.125 9.375 C1 10 1 10 3 12 C2.625 14.625 2.625 14.625 2 17 C0 14 0 14 0 12 C-4.3164922 11.23826608 -7.74433453 10.83936396 -12 12 C-12.33 13.32 -12.66 14.64 -13 16 C-17.29 16 -21.58 16 -26 16 C-26 10.39003033 -25.24479968 8.95822157 -21.890625 4.8046875 C-15.93106957 -0.88397905 -7.73533121 -0.3903812 0 0 Z " fill="#313A42" transform="translate(242,232)"/>
<path d="M0 0 C1.4540625 0.0309375 1.4540625 0.0309375 2.9375 0.0625 C3.26686517 7.22070293 2.16908955 13.094874 0.125 19.9375 C-0.13603516 20.87335938 -0.39707031 21.80921875 -0.66601562 22.7734375 C-2.97490528 30.70917675 -2.97490528 30.70917675 -6.0625 33.0625 C-8.75 32.75 -8.75 32.75 -11.0625 32.0625 C-11.32231057 26.00481152 -10.52921769 21.19028111 -8.6875 15.4375 C-8.46578125 14.71304687 -8.2440625 13.98859375 -8.015625 13.2421875 C-7.3796541 11.17715258 -6.72479905 9.11922094 -6.0625 7.0625 C-5.69898438 5.92039063 -5.33546875 4.77828125 -4.9609375 3.6015625 C-3.71335389 0.07578273 -3.71335389 0.07578273 0 0 Z " fill="#398CDD" transform="translate(419.0625,245.9375)"/>
<path d="M0 0 C0.8971875 0.5259375 0.8971875 0.5259375 1.8125 1.0625 C1.36780671 6.10235731 -0.90093362 8.43884988 -4.1875 12.0625 C-3.52041016 12.75085938 -3.52041016 12.75085938 -2.83984375 13.453125 C-2.27394531 14.06671875 -1.70804687 14.6803125 -1.125 15.3125 C-0.55652344 15.91578125 0.01195312 16.5190625 0.59765625 17.140625 C1.8125 19.0625 1.8125 19.0625 1.49609375 21.296875 C1.15771484 22.17085938 1.15771484 22.17085938 0.8125 23.0625 C-3.9375 24.1875 -3.9375 24.1875 -6.1875 23.0625 C-6.1875 22.4025 -6.1875 21.7425 -6.1875 21.0625 C-6.8475 21.0625 -7.5075 21.0625 -8.1875 21.0625 C-9.6953125 19.70703125 -9.6953125 19.70703125 -11.3125 17.875 C-11.85132813 17.28332031 -12.39015625 16.69164062 -12.9453125 16.08203125 C-14.56684052 13.44577343 -14.72275102 12.11110366 -14.1875 9.0625 C-12.32421875 6.640625 -12.32421875 6.640625 -9.875 4.3125 C-9.07449219 3.53390625 -8.27398437 2.7553125 -7.44921875 1.953125 C-4.77323923 -0.28379052 -3.35183904 -1.43650245 0 0 Z " fill="#147EE7" transform="translate(403.1875,249.9375)"/>
<path d="M0 0 C3.69734787 -0.35901784 5.46349596 -0.37653724 8.5546875 1.79296875 C9.32039063 2.58316406 10.08609375 3.37335938 10.875 4.1875 C11.65617187 4.96480469 12.43734375 5.74210938 13.2421875 6.54296875 C15 9 15 9 15.55078125 11.46484375 C14.75994987 15.10491157 12.93146713 16.7675028 10.3125 19.375 C9.44238281 20.26960938 8.57226562 21.16421875 7.67578125 22.0859375 C5 24 5 24 2.16796875 23.7890625 C1.45253906 23.52867187 0.73710937 23.26828125 0 23 C-0.875 20.9375 -0.875 20.9375 -1 18 C0.73919133 15.40994275 2.80397934 13.20875121 5 11 C4.55527344 10.54109375 4.11054688 10.0821875 3.65234375 9.609375 C3.08644531 8.99578125 2.52054687 8.3821875 1.9375 7.75 C1.36902344 7.14671875 0.80054688 6.5434375 0.21484375 5.921875 C-1 4 -1 4 -0.68359375 1.765625 C-0.45800781 1.18296875 -0.23242188 0.6003125 0 0 Z " fill="#2786DF" transform="translate(426,250)"/>
<path d="M0 0 C4.25430078 3.52080065 5.49100801 6.79397763 7 12 C7 14.97 7 17.94 7 21 C-3.56 21 -14.12 21 -25 21 C-25.33 21.66 -25.66 22.32 -26 23 C-26 22.01 -26 21.02 -26 20 C-18.41 19.67 -10.82 19.34 -3 19 C-5.00032373 17.99983813 -6.83125748 17.50603992 -9 17 C-8.67 15.68 -8.34 14.36 -8 13 C-7.01 13 -6.02 13 -5 13 C-5.99483202 11.78356708 -5.99483202 11.78356708 -7.94946289 11.88647461 C-8.7821167 11.89171143 -9.61477051 11.89694824 -10.47265625 11.90234375 C-11.82133789 11.90717773 -11.82133789 11.90717773 -13.19726562 11.91210938 C-14.14279297 11.92048828 -15.08832031 11.92886719 -16.0625 11.9375 C-17.01189453 11.94201172 -17.96128906 11.94652344 -18.93945312 11.95117188 C-21.29303065 11.9629989 -23.64648477 11.97947975 -26 12 C-25.67 11.34 -25.34 10.68 -25 10 C-19.06 10.33 -13.12 10.66 -7 11 C-6.67 10.01 -6.34 9.02 -6 8 C-4.67696283 7.6278958 -3.34262065 7.29369827 -2 7 C-1.67 6.34 -1.34 5.68 -1 5 C-0.67 4.67 -0.34 4.34 0 4 C0 2.68 0 1.36 0 0 Z " fill="#5C646C" transform="translate(370,239)"/>
<path d="M0 0 C6.3655664 0.28868782 10.82244458 1.16860899 16 5 C20.13076461 10.33001885 19.28058031 16.57782841 19 23 C18.67 23 18.34 23 18 23 C17.67 18.38 17.34 13.76 17 9 C16.46375 10.27875 15.9275 11.5575 15.375 12.875 C14.4609375 15.0546875 14.4609375 15.0546875 13 17 C11.02 17.66 9.04 18.32 7 19 C7 28.24 7 37.48 7 47 C6.67 47 6.34 47 6 47 C5.98018066 46.07662842 5.96036133 45.15325684 5.93994141 44.2019043 C5.86182261 40.77438826 5.77513003 37.34731202 5.68261719 33.92016602 C5.64434653 32.43717788 5.60949022 30.95409752 5.578125 29.47094727 C5.532432 27.33836928 5.47444662 25.20642509 5.4140625 23.07421875 C5.3826416 21.79119873 5.3512207 20.50817871 5.31884766 19.1862793 C5.23620772 15.84612541 5.23620772 15.84612541 3 13 C3.66 11.68 4.32 10.36 5 9 C4.01 7.68 3.02 6.36 2 5 C2.66 4.01 3.32 3.02 4 2 C2.35 2 0.7 2 -1 2 C-0.67 1.34 -0.34 0.68 0 0 Z " fill="#3B454D" transform="translate(309,231)"/>
<path d="M0 0 C4.62 0 9.24 0 14 0 C13.03207881 5.37733997 11.53394316 8.32547328 7.19140625 11.70703125 C0.8554577 15.44535384 -5.87902262 16.74068336 -13 15 C-13 14.67 -13 14.34 -13 14 C-9.7 13.67 -6.4 13.34 -3 13 C-3.33 12.67 -3.66 12.34 -4 12 C-4 11.34 -4 10.68 -4 10 C-4.66 9.67 -5.32 9.34 -6 9 C-5.34 7.68 -4.68 6.36 -4 5 C-6.31 5 -8.62 5 -11 5 C-11 4.67 -11 4.34 -11 4 C-8.03 4 -5.06 4 -2 4 C-2 3.34 -2 2.68 -2 2 C-1.34 2 -0.68 2 0 2 C0 1.34 0 0.68 0 0 Z " fill="#374049" transform="translate(362,264)"/>
<path d="M0 0 C1.27327904 -0.00021904 1.27327904 -0.00021904 2.57228088 -0.0004425 C5.38594086 0.00025573 8.19953514 0.00804399 11.01318359 0.01586914 C12.96088627 0.01773364 14.90858941 0.01915739 16.85629272 0.02015686 C21.98882334 0.02397956 27.12132576 0.03380775 32.25384521 0.04486084 C37.48872496 0.05508027 42.72360925 0.05965562 47.95849609 0.06469727 C58.23455016 0.07543022 68.51058329 0.09250369 78.78662109 0.11352539 C78.78662109 1.10352539 78.78662109 2.09352539 78.78662109 3.11352539 C77.70778152 3.10020172 76.62894196 3.08687805 75.51741028 3.07315063 C65.35024771 2.95151933 55.18323274 2.86157692 45.0155077 2.80265236 C39.78810619 2.77133984 34.56129199 2.72886806 29.33422852 2.66088867 C24.28970762 2.5956939 19.24575157 2.55981875 14.2008419 2.54426193 C12.27624302 2.53317582 10.35167505 2.51152668 8.42731667 2.47914505 C5.73105722 2.43557909 3.03713098 2.42959118 0.34057617 2.43237305 C-0.4549617 2.41080139 -1.25049957 2.38922974 -2.07014465 2.36700439 C-5.0672407 2.40045932 -7.46670175 2.45571045 -9.78154945 4.4950676 C-10.98660226 5.98720385 -12.10633275 7.5472969 -13.21337891 9.11352539 C-13.87337891 9.11352539 -14.53337891 9.11352539 -15.21337891 9.11352539 C-12.2596501 0.70675878 -8.40330058 -0.03746905 0 0 Z " fill="#6FAFE3" transform="translate(370.21337890625,200.886474609375)"/>
<path d="M0 0 C3.26460973 1.80412643 4.88929795 2.83394693 7 6 C7.19412165 8.58690073 7.27305493 11.06567468 7.25878906 13.65258789 C7.26404602 14.8188546 7.26404602 14.8188546 7.26940918 16.00868225 C7.27821583 18.58009758 7.27238173 21.1512381 7.265625 23.72265625 C7.26697182 25.5071976 7.26891249 27.29173859 7.27142334 29.07627869 C7.27437304 32.81626885 7.27008139 36.55616351 7.26074219 40.29614258 C7.24933948 45.09719207 7.25591325 49.89801817 7.26788712 54.69905949 C7.27510283 58.38355706 7.27281926 62.06800138 7.26763153 65.75250053 C7.26629466 67.5231879 7.26794405 69.29388007 7.27259064 71.06456184 C7.27765207 73.53544109 7.26995161 76.00595473 7.25878906 78.47680664 C7.26283752 79.21296204 7.26688599 79.94911743 7.27105713 80.70758057 C7.22853056 85.77146944 7.22853056 85.77146944 5 88 C4.99635437 86.99410828 4.99270874 85.98821655 4.98895264 84.95184326 C4.95202333 75.47569869 4.89427345 65.99987971 4.81609726 56.523983 C4.77657536 51.65220536 4.74441007 46.78060974 4.72900391 41.90869141 C4.71386827 37.2076372 4.67947808 32.50708327 4.63169098 27.80625153 C4.61684517 26.01214189 4.60895716 24.21796084 4.60811615 22.42378998 C4.60575429 19.91186588 4.5787396 17.40133315 4.54589844 14.88964844 C4.5509288 14.14661972 4.55595917 13.403591 4.56114197 12.63804626 C4.48978805 9.11443355 4.33877073 7.38398489 1.96588135 4.69439697 C1.3171405 4.13524597 0.66839966 3.57609497 0 3 C0 2.01 0 1.02 0 0 Z " fill="#267ACB" transform="translate(450,202)"/>
<path d="M0 0 C6.79285068 -0.42455317 13.23537875 -0.15576451 18.71484375 4.4375 C20.5104213 6.62057301 20.2221798 8.25978241 20 11 C20.66 11 21.32 11 22 11 C21.67 11.66 21.34 12.32 21 13 C20.34 12.67 19.68 12.34 19 12 C18.34 13.32 17.68 14.64 17 16 C14.16397629 15.60610782 12.35240608 15.27283051 10.0625 13.5 C7.43953413 11.59238846 5.18321138 11.36172857 2 11 C2.33 10.34 2.66 9.68 3 9 C5.33333333 9 7.66666667 9 10 9 C10 8.01 10 7.02 10 6 C7.36 6 4.72 6 2 6 C2 5.34 2 4.68 2 4 C3.32 3.67 4.64 3.34 6 3 C3.69 3 1.38 3 -1 3 C-0.67 2.01 -0.34 1.02 0 0 Z " fill="#353C46" transform="translate(350,232)"/>
<path d="M0 0 C0.66 0.99 1.32 1.98 2 3 C1.01 4.485 1.01 4.485 0 6 C-0.15811388 9.05270463 -0.15811388 9.05270463 1 12 C1.33 12 1.66 12 2 12 C2 13.65 2 15.3 2 17 C1.67 16.01 1.34 15.02 1 14 C0.46632813 14.28875 -0.06734375 14.5775 -0.6171875 14.875 C-6.59652755 17.85432515 -11.36678275 18.4985299 -18 18 C-18.33 17.34 -18.66 16.68 -19 16 C-17.02 15.34 -15.04 14.68 -13 14 C-13.33 13.34 -13.66 12.68 -14 12 C-13.34 11.67 -12.68 11.34 -12 11 C-13.06546953 8.86906094 -14.29159719 7.63412443 -16 6 C-15.67 5.34 -15.34 4.68 -15 4 C-14.154375 4.391875 -13.30875 4.78375 -12.4375 5.1875 C-7.94652392 6.24900344 -5.96839405 5.21314284 -2 3 C-1.34 2.01 -0.68 1.02 0 0 Z " fill="#3A4249" transform="translate(87,261)"/>
<path d="M0 0 C0.33 0.66 0.66 1.32 1 2 C0.67 2.66 0.34 3.32 0 4 C6.6 4 13.2 4 20 4 C20.33 3.34 20.66 2.68 21 2 C21 2.99 21 3.98 21 5 C20.01 5.66 19.02 6.32 18 7 C18.33 7.66 18.66 8.32 19 9 C22.0399648 9.69337792 22.0399648 9.69337792 25.5625 10.125 C26.76003906 10.29257812 27.95757812 10.46015625 29.19140625 10.6328125 C30.11824219 10.75398438 31.04507813 10.87515625 32 11 C32 11.33 32 11.66 32 12 C21.44 12 10.88 12 0 12 C1.32 11.67 2.64 11.34 4 11 C4 9.02 4 7.04 4 5 C2.35 5 0.7 5 -1 5 C-0.67 3.35 -0.34 1.7 0 0 Z " fill="#1F2830" transform="translate(344,247)"/>
<path d="M0 0 C2.84780619 2.23206431 3.84997666 3.54992999 5 7 C4.5625 9.0625 4.5625 9.0625 3 11 C-0.93212596 12.59318897 -3.93083776 13.35638741 -8 12 C-8 11.34 -8 10.68 -8 10 C-8.639375 9.773125 -9.27875 9.54625 -9.9375 9.3125 C-12 8 -12 8 -12.75 5.375 C-12.8325 4.59125 -12.915 3.8075 -13 3 C-12.01 3.495 -12.01 3.495 -11 4 C-10.01 4 -9.02 4 -8 4 C-8 3.01 -8 2.02 -8 1 C-5.15916359 -0.42041821 -3.14522722 -0.31452272 0 0 Z " fill="#2B353F" transform="translate(71,265)"/>
<path d="M0 0 C-0.33 1.32 -0.66 2.64 -1 4 C-0.34 4 0.32 4 1 4 C1.93423645 7.01031744 2.04449911 7.86650268 1 11 C-2.96 10.67 -6.92 10.34 -11 10 C-11.33 10.66 -11.66 11.32 -12 12 C-13.32 10.02 -14.64 8.04 -16 6 C-15.01 5.67 -14.02 5.34 -13 5 C-13 4.01 -13 3.02 -13 2 C-8.22169095 -0.91360308 -5.44893869 -1.19876651 0 0 Z " fill="#27313A" transform="translate(313,233)"/>
<path d="M0 0 C0.680625 0.165 1.36125 0.33 2.0625 0.5 C5.4164822 1.07089059 8.60389805 1.06659023 12 1 C11.67 1.66 11.34 2.32 11 3 C9.68 3 8.36 3 7 3 C7 3.66 7 4.32 7 5 C9.64 5 12.28 5 15 5 C15.33 6.65 15.66 8.3 16 10 C15.34 9.67 14.68 9.34 14 9 C9.31760207 8.55405734 5.97741316 9.56759449 1.734375 11.34375 C0 12 0 12 -2 12 C-2.33 12.66 -2.66 13.32 -3 14 C-3.66 13.67 -4.32 13.34 -5 13 C-5.625 10.9375 -5.625 10.9375 -6 9 C-5.34 9 -4.68 9 -4 9 C-3.71125 8.2575 -3.4225 7.515 -3.125 6.75 C-2.17697356 4.43260203 -1.15154089 2.22082885 0 0 Z " fill="#29343D" transform="translate(345,233)"/>
<path d="M0 0 C0.99831848 0.16233124 1.99663696 0.32466248 3.02520752 0.49191284 C6.89465383 1.04179764 10.68552551 1.12700352 14.59667969 1.12939453 C15.32130402 1.13114685 16.04592834 1.13289917 16.79251099 1.13470459 C19.16899062 1.13907653 21.54539471 1.13620036 23.921875 1.1328125 C25.58945734 1.13348717 27.25703958 1.13445855 28.92462158 1.13571167 C32.41460102 1.13718259 35.9045548 1.13505466 39.39453125 1.13037109 C43.8402856 1.12469195 48.28597932 1.12794514 52.73173141 1.13394356 C56.17552129 1.13758072 59.61929713 1.13639587 63.06308746 1.13381577 C64.70073707 1.13315428 66.33838801 1.13394733 67.97603607 1.13629532 C76.69605325 1.14605063 85.32685764 1.03575114 94 0 C93.67 0.99 93.34 1.98 93 3 C81.31730774 3.0694358 69.63466437 3.12277861 57.95180798 3.15543652 C52.52728691 3.17110874 47.10290675 3.19237547 41.6784668 3.22631836 C36.44596784 3.2588562 31.21360464 3.27684128 25.98101234 3.28463173 C23.98226089 3.29018527 21.98351706 3.30102965 19.98482323 3.31719017 C17.19048234 3.33889032 14.39670618 3.34197004 11.60229492 3.34057617 C10.77151428 3.351362 9.94073364 3.36214783 9.08477783 3.3732605 C3.39044428 3.34241803 3.39044428 3.34241803 1.26390553 1.47745228 C0.8468167 0.98989303 0.42972788 0.50233377 0 0 Z " fill="#3B7CC3" transform="translate(358,292)"/>
<path d="M0 0 C0 0.33 0 0.66 0 1 C-1.98 1.33 -3.96 1.66 -6 2 C-6 2.66 -6 3.32 -6 4 C-5.34 4 -4.68 4 -4 4 C-3.67 4.99 -3.34 5.98 -3 7 C-1.68 7.66 -0.36 8.32 1 9 C-2.96 9.66 -6.92 10.32 -11 11 C-11.33 10.01 -11.66 9.02 -12 8 C-12.99 8 -13.98 8 -15 8 C-15.33 7.01 -15.66 6.02 -16 5 C-17.65 5.66 -19.3 6.32 -21 7 C-14.9765838 0.06394499 -8.66934953 -0.353851 0 0 Z " fill="#26323C" transform="translate(239,250)"/>
<path d="M0 0 C0.66 0 1.32 0 2 0 C2 13.86 2 27.72 2 42 C4.97 42 7.94 42 11 42 C11 42.66 11 43.32 11 44 C7.37 44 3.74 44 0 44 C0 29.48 0 14.96 0 0 Z " fill="#1C2328" transform="translate(261,234)"/>
<path d="M0 0 C28.71 0.33 57.42 0.66 87 1 C87 1.33 87 1.66 87 2 C85.4723703 2.01213028 85.4723703 2.01213028 83.91387939 2.02450562 C74.32008768 2.10196259 64.72643785 2.18970081 55.13283157 2.28752708 C50.20056221 2.33749053 45.26831427 2.38382063 40.3359375 2.421875 C35.57665873 2.4587271 30.81755918 2.50508697 26.05843353 2.55806351 C24.24198294 2.57660783 22.42549393 2.59171566 20.6089859 2.60334396 C18.06628536 2.62020572 15.52399528 2.6492405 12.98144531 2.68115234 C11.85287613 2.68439262 11.85287613 2.68439262 10.70150757 2.68769836 C6.96016266 2.74775427 4.20093863 2.99371279 1 5 C0.67 5 0.34 5 0 5 C0 3.35 0 1.7 0 0 Z " fill="#217EDB" transform="translate(360,207)"/>
<path d="M0 0 C-0.30871122 1.79232337 -0.62209064 3.58384321 -0.9375 5.375 C-1.11152344 6.37273437 -1.28554687 7.37046875 -1.46484375 8.3984375 C-2 11 -2 11 -3 13 C-4.77734375 13.59765625 -4.77734375 13.59765625 -6.9375 14.0625 C-9.17154137 14.55309711 -10.94795605 14.97397802 -13 16 C-13 14.68 -13 13.36 -13 12 C-8.545 11.505 -8.545 11.505 -4 11 C-4.33 8.69 -4.66 6.38 -5 4 C-5.66 4.66 -6.32 5.32 -7 6 C-8.98821313 6.39764263 -10.98944339 6.73775349 -13 7 C-13 3 -13 3 -12 1 C-8.204122 -0.5183512 -4.0122978 -0.06687163 0 0 Z " fill="#394047" transform="translate(216,232)"/>
<path d="M0 0 C2.31 0 4.62 0 7 0 C7.33 1.65 7.66 3.3 8 5 C17.57 5 27.14 5 37 5 C37 5.33 37 5.66 37 6 C26.64523146 6.70201821 16.38324014 7.14809693 6 7 C6 5.68 6 4.36 6 3 C4.68 3 3.36 3 2 3 C2.33 4.98 2.66 6.96 3 9 C2.34 9 1.68 9 1 9 C-0.61949011 6.42786866 -1.04408751 5.32330841 -0.625 2.25 C-0.41875 1.5075 -0.2125 0.765 0 0 Z " fill="#599EE3" transform="translate(355,282)"/>
<path d="M0 0 C0.66 0 1.32 0 2 0 C4.18515674 6.55547023 1.10703731 13.67888806 -1 20 C-2.29944744 21.69321939 -3.62926214 23.36395804 -5 25 C-6.31951587 19.72193652 -5.49401825 16.05510283 -4 11 C-3.87367188 10.30132812 -3.74734375 9.60265625 -3.6171875 8.8828125 C-3 7 -3 7 0 5 C0.25030977 2.41619823 0.25030977 2.41619823 0 0 Z " fill="#057AEA" transform="translate(417,248)"/>
<path d="M0 0 C3.6875 -0.3125 3.6875 -0.3125 7 0 C6.67 1.32 6.34 2.64 6 4 C7.32 4.99 8.64 5.98 10 7 C8 9 8 9 5.1796875 9.1953125 C4.08914063 9.17210937 2.99859375 9.14890625 1.875 9.125 C0.77929688 9.10695313 -0.31640625 9.08890625 -1.4453125 9.0703125 C-2.28835938 9.04710937 -3.13140625 9.02390625 -4 9 C-4.33 8.34 -4.66 7.68 -5 7 C-4.34 6.34 -3.68 5.68 -3 5 C-2.608125 4.13375 -2.21625 3.2675 -1.8125 2.375 C-1.214375 1.59125 -0.61625 0.8075 0 0 Z " fill="#28323C" transform="translate(351,269)"/>
<path d="M0 0 C2.64 0 5.28 0 8 0 C8.33 0.66 8.66 1.32 9 2 C9.53625 1.7525 10.0725 1.505 10.625 1.25 C14.28754864 0.86446856 16.15757379 2.86818034 19 5 C18.360625 5.28875 17.72125 5.5775 17.0625 5.875 C14.84793921 6.82823451 14.84793921 6.82823451 14 9 C14.66 9.66 15.32 10.32 16 11 C15.21625 11.28875 14.4325 11.5775 13.625 11.875 C10.90328368 12.84912254 10.90328368 12.84912254 9 15 C9 14.34 9 13.68 9 13 C8.34 12.67 7.68 12.34 7 12 C7.54723683 8.62537285 8.0549 6.91765 10 4 C9.01 4 8.02 4 7 4 C7 3.01 7 2.02 7 1 C6.21625 1.20625 5.4325 1.4125 4.625 1.625 C3.325625 1.810625 3.325625 1.810625 2 2 C1.34 1.34 0.68 0.68 0 0 Z " fill="#3C454D" transform="translate(265,233)"/>
<path d="M0 0 C2.875 -0.125 2.875 -0.125 6 0 C8 2 8 2 8.125 5.125 C8.08375 6.07375 8.0425 7.0225 8 8 C9.32 8.33 10.64 8.66 12 9 C11.67 9.99 11.34 10.98 11 12 C6.56916107 11.17947427 3.25602662 9.29789418 0.125 6.0625 C-1 4 -1 4 -0.6875 1.75 C-0.460625 1.1725 -0.23375 0.595 0 0 Z " fill="#358ADC" transform="translate(426,250)"/>
<path d="M0 0 C0.8971875 0.5259375 0.8971875 0.5259375 1.8125 1.0625 C1.36646127 6.11760556 -0.83450824 8.46416738 -4.1875 12.0625 C-5.1775 12.5575 -5.1775 12.5575 -6.1875 13.0625 C-5.8575 11.0825 -5.5275 9.1025 -5.1875 7.0625 C-4.1975 7.0625 -3.2075 7.0625 -2.1875 7.0625 C-1.8575 5.4125 -1.5275 3.7625 -1.1875 2.0625 C-2.1775 2.0625 -3.1675 2.0625 -4.1875 2.0625 C-4.5175 3.0525 -4.8475 4.0425 -5.1875 5.0625 C-6.1465625 5.2790625 -6.1465625 5.2790625 -7.125 5.5 C-9.34065475 5.85948827 -9.34065475 5.85948827 -10.375 7.875 C-11.13689939 9.92626758 -11.72925992 11.92404631 -12.1875 14.0625 C-12.8475 14.0625 -13.5075 14.0625 -14.1875 14.0625 C-14.60403755 10.65775829 -14.45445117 9.40948055 -12.32421875 6.640625 C-11.51597656 5.87234375 -10.70773437 5.1040625 -9.875 4.3125 C-9.07449219 3.53390625 -8.27398437 2.7553125 -7.44921875 1.953125 C-4.77323923 -0.28379052 -3.35183904 -1.43650245 0 0 Z " fill="#4A94DD" transform="translate(403.1875,249.9375)"/>
<path d="M0 0 C-0.33 1.32 -0.66 2.64 -1 4 C-2.32 3.67 -3.64 3.34 -5 3 C-5 3.66 -5 4.32 -5 5 C-5.66 5 -6.32 5 -7 5 C-7 5.66 -7 6.32 -7 7 C-8.65 7 -10.3 7 -12 7 C-12.33 5.68 -12.66 4.36 -13 3 C-13.66 3 -14.32 3 -15 3 C-15 2.34 -15 1.68 -15 1 C-15.66 0.67 -16.32 0.34 -17 0 C-11.06975197 -0.97040422 -5.93609666 -0.89316269 0 0 Z " fill="#232D35" transform="translate(248,251)"/>
<path d="M0 0 C6.70860315 4.98011101 6.70860315 4.98011101 7.75 8.625 C6.70646306 11.92953364 4.81536328 13.09962979 2 15 C2 14.01 2 13.02 2 12 C-0.31 12 -2.62 12 -5 12 C-4.34 10.35 -3.68 8.7 -3 7 C-1.02 7.66 0.96 8.32 3 9 C2.67 8.01 2.34 7.02 2 6 C1.01 5.67 0.02 5.34 -1 5 C-0.67 3.35 -0.34 1.7 0 0 Z " fill="#1C80E0" transform="translate(434,253)"/>
<path d="M0 0 C-0.33 1.32 -0.66 2.64 -1 4 C-0.34 4 0.32 4 1 4 C1.93423645 7.01031744 2.04449911 7.86650268 1 11 C-1.31 10.67 -3.62 10.34 -6 10 C-5.67 8.02 -5.34 6.04 -5 4 C-6.65 2.68 -8.3 1.36 -10 0 C-6.30581799 -1.231394 -3.7943739 -0.64432764 0 0 Z " fill="#2F3941" transform="translate(313,233)"/>
<path d="M0 0 C1.32 0.33 2.64 0.66 4 1 C4 2.65 4 4.3 4 6 C4.66 6 5.32 6 6 6 C5.67 6.66 5.34 7.32 5 8 C4.34 7.67 3.68 7.34 3 7 C2.34 8.32 1.68 9.64 1 11 C-0.65 10.67 -2.3 10.34 -4 10 C-4 8.02 -4 6.04 -4 4 C-3.34 4 -2.68 4 -2 4 C-1.34 2.68 -0.68 1.36 0 0 Z " fill="#28323B" transform="translate(366,237)"/>
<path d="M0 0 C2.31 0.33 4.62 0.66 7 1 C7 2.32 7 3.64 7 5 C5.02 5.66 3.04 6.32 1 7 C1 16.24 1 25.48 1 35 C0.67 35 0.34 35 0 35 C-0.16748075 30.33712319 -0.32805376 25.67407963 -0.48217773 21.01074219 C-0.53560756 19.42376271 -0.59093771 17.83684605 -0.64819336 16.25 C-0.73007724 13.97149196 -0.80516524 11.69284678 -0.87890625 9.4140625 C-0.90594131 8.70255035 -0.93297638 7.99103821 -0.96083069 7.25796509 C-1.11387171 2.22774341 -1.11387171 2.22774341 0 0 Z " fill="#687076" transform="translate(315,243)"/>
<path d="M0 0 C0 3.3 0 6.6 0 10 C-0.33 10 -0.66 10 -1 10 C-1 7.03 -1 4.06 -1 1 C-1.99 1.495 -1.99 1.495 -3 2 C-2.67 3.98 -2.34 5.96 -2 8 C-4.64 8 -7.28 8 -10 8 C-10.1875 5.125 -10.1875 5.125 -10 2 C-6.3558226 -0.4294516 -4.28758728 -0.16179575 0 0 Z " fill="#374148" transform="translate(184,233)"/>
<path d="M0 0 C0.33 0.66 0.66 1.32 1 2 C2.98 1.67 4.96 1.34 7 1 C7 1.99 7 2.98 7 4 C7.99 3.67 8.98 3.34 10 3 C10 4.32 10 5.64 10 7 C5.71 7 1.42 7 -3 7 C-3 5.35 -3 3.7 -3 2 C-2.01 1.34 -1.02 0.68 0 0 Z " fill="#4F555C" transform="translate(219,241)"/>
<path d="M0 0 C1.45823212 -0.0270043 2.91660675 -0.04639787 4.375 -0.0625 C5.18710938 -0.07410156 5.99921875 -0.08570313 6.8359375 -0.09765625 C9 0 9 0 11 1 C11 1.66 11 2.32 11 3 C12.32 3.66 13.64 4.32 15 5 C14.67 5.66 14.34 6.32 14 7 C14.66 7.33 15.32 7.66 16 8 C10.25 11 10.25 11 8 11 C8 8.66666667 8 6.33333333 8 4 C8.66 4 9.32 4 10 4 C10 3.34 10 2.68 10 2 C7.03 2 4.06 2 1 2 C0.67 1.34 0.34 0.68 0 0 Z M6 4 C6.66 4.66 7.32 5.32 8 6 C7.34 6 6.68 6 6 6 C6 5.34 6 4.68 6 4 Z " fill="#3B434A" transform="translate(124,267)"/>
<path d="M0 0 C0.33 0 0.66 0 1 0 C1 7.26 1 14.52 1 22 C-2.96 22 -6.92 22 -11 22 C-11.33 20.35 -11.66 18.7 -12 17 C-11.01 17 -10.02 17 -9 17 C-9 17.99 -9 18.98 -9 20 C-8.01 20 -7.02 20 -6 20 C-5.67 19.34 -5.34 18.68 -5 18 C-5 18.66 -5 19.32 -5 20 C-2.87062042 19.08696527 -2.87062042 19.08696527 -1 17 C-0.33722402 14.12058959 -0.30317157 11.25868831 -0.25 8.3125 C-0.20552734 7.11657227 -0.20552734 7.11657227 -0.16015625 5.89648438 C-0.08955918 3.93153251 -0.04250292 1.96576023 0 0 Z " fill="#1B222A" transform="translate(150,256)"/>
<path d="M0 0 C0.66 0.66 1.32 1.32 2 2 C2.99 1.67 3.98 1.34 5 1 C5 2.32 5 3.64 5 5 C7.65228812 6.07525194 10.28368454 7.09456151 13 8 C13 8.66 13 9.32 13 10 C11.68 9.67 10.36 9.34 9 9 C8.67 9.66 8.34 10.32 8 11 C5.525 10.01 5.525 10.01 3 9 C3 8.34 3 7.68 3 7 C2.01 7.33 1.02 7.66 0 8 C0 5.36 0 2.72 0 0 Z " fill="#1F2830" transform="translate(105,252)"/>
<path d="M0 0 C0 0.33 0 0.66 0 1 C-2.97 1 -5.94 1 -9 1 C-9.33 2.32 -9.66 3.64 -10 5 C-12.5625 6.75 -12.5625 6.75 -15 8 C-15.33 7.34 -15.66 6.68 -16 6 C-17.65 6.33 -19.3 6.66 -21 7 C-14.67755752 -0.06625924 -8.99550394 -0.31999816 0 0 Z " fill="#40474D" transform="translate(131,232)"/>
<path d="M0 0 C0.99 0.33 1.98 0.66 3 1 C3.3721042 2.32303717 3.70630173 3.65737935 4 5 C4.66 5.33 5.32 5.66 6 6 C4.35 6 2.7 6 1 6 C1 6.99 1 7.98 1 9 C-1.5 11.1875 -1.5 11.1875 -4 13 C-5.32 11.35 -6.64 9.7 -8 8 C-6.2984375 7.4121875 -6.2984375 7.4121875 -4.5625 6.8125 C-0.79660949 5.41389118 -0.79660949 5.41389118 -0.0625 2.3125 C-0.041875 1.549375 -0.02125 0.78625 0 0 Z " fill="#3F474F" transform="translate(343,261)"/>
<path d="M0 0 C2 1 2 1 2.6875 2.875 C3 5 3 5 2 8 C-2.455 8.495 -2.455 8.495 -7 9 C-6.09539273 5.29933391 -5.56131642 3.43502022 -2.5 1.0625 C-1.675 0.711875 -0.85 0.36125 0 0 Z " fill="#25333C" transform="translate(210,235)"/>
<path d="M0 0 C0 0.33 0 0.66 0 1 C-1.98 1.33 -3.96 1.66 -6 2 C-6.33 2.99 -6.66 3.98 -7 5 C-7.825 4.95875 -8.65 4.9175 -9.5 4.875 C-13.61991815 5.02213993 -17.03147307 5.90523395 -21 7 C-14.9765838 0.06394499 -8.66934953 -0.353851 0 0 Z " fill="#41494E" transform="translate(239,250)"/>
<path d="M0 0 C2.0625 1.75 2.0625 1.75 4 4 C3.75 6.25 3.75 6.25 3 8 C-1.75 9.125 -1.75 9.125 -4 8 C-4 7.34 -4 6.68 -4 6 C-4.66 6 -5.32 6 -6 6 C-6.33 5.01 -6.66 4.02 -7 3 C-5.68 3.33 -4.36 3.66 -3 4 C-3 4.66 -3 5.32 -3 6 C-2.01 6 -1.02 6 0 6 C0 5.01 0 4.02 0 3 C-0.99 3 -1.98 3 -3 3 C-2.67 2.34 -2.34 1.68 -2 1 C-1.34 1.33 -0.68 1.66 0 2 C0 1.34 0 0.68 0 0 Z " fill="#4792DD" transform="translate(401,265)"/>
<path d="M0 0 C1.32 0.33 2.64 0.66 4 1 C2.71937515 2.7074998 1.38232443 4.37373596 0 6 C-0.66 6 -1.32 6 -2 6 C-2 7.65 -2 9.3 -2 11 C-2.53625 10.690625 -3.0725 10.38125 -3.625 10.0625 C-6.3984957 8.82172561 -9.00042837 8.4090325 -12 8 C-11.67 7.34 -11.34 6.68 -11 6 C-8.66666667 6 -6.33333333 6 -4 6 C-3.34 4.68 -2.68 3.36 -2 2 C-1.34 2 -0.68 2 0 2 C0 1.34 0 0.68 0 0 Z " fill="#4C535A" transform="translate(364,235)"/>
<path d="M0 0 C0.99 0.33 1.98 0.66 3 1 C-1.52159588 5.52159588 -6.84041413 6.96315102 -13 8 C-15.53134794 7.95643119 -17.52574709 7.60481738 -20 7 C-20 6.67 -20 6.34 -20 6 C-18.95199219 5.92652344 -18.95199219 5.92652344 -17.8828125 5.8515625 C-16.97273438 5.77679688 -16.06265625 5.70203125 -15.125 5.625 C-13.76761719 5.52058594 -13.76761719 5.52058594 -12.3828125 5.4140625 C-9.82058097 5.20431868 -9.82058097 5.20431868 -8 3 C-6.01276732 2.29618843 -4.01222047 1.6288189 -2 1 C-1.34 0.67 -0.68 0.34 0 0 Z " fill="#4D5463" transform="translate(369,272)"/>
<path d="M0 0 C0.99 0 1.98 0 3 0 C3.02693575 2.12493141 3.04636628 4.24995912 3.0625 6.375 C3.07410156 7.55835938 3.08570313 8.74171875 3.09765625 9.9609375 C3 13 3 13 2 15 C1.34 15 0.68 15 0 15 C0 10.05 0 5.1 0 0 Z " fill="#1580E7" transform="translate(452,278)"/>
<path d="M0 0 C0.66 0.33 1.32 0.66 2 1 C1.125 7.75 1.125 7.75 0 10 C-1.77734375 10.59765625 -1.77734375 10.59765625 -3.9375 11.0625 C-6.17154137 11.55309711 -7.94795605 11.97397802 -10 13 C-10 11.68 -10 10.36 -10 9 C-5.545 8.505 -5.545 8.505 -1 8 C-1.020625 7.05125 -1.04125 6.1025 -1.0625 5.125 C-1 2 -1 2 0 0 Z " fill="#62676C" transform="translate(213,235)"/>
<path d="M0 0 C0.33 0.66 0.66 1.32 1 2 C1.99 2 2.98 2 4 2 C4 3.65 4 5.3 4 7 C5.32 7.33 6.64 7.66 8 8 C7.67 8.99 7.34 9.98 7 11 C2.70340947 10.14068189 1.46379258 8.69568886 -1 5 C-0.625 2.3125 -0.625 2.3125 0 0 Z " fill="#0879E8" transform="translate(430,251)"/>
<path d="M0 0 C1.485 0.99 1.485 0.99 3 2 C3.66 2 4.32 2 5 2 C5.33 1.34 5.66 0.68 6 0 C6 3.3 6 6.6 6 10 C5.34 8.68 4.68 7.36 4 6 C3.01 6 2.02 6 1 6 C1 8.97 1 11.94 1 15 C0.67 15 0.34 15 0 15 C0 10.05 0 5.1 0 0 Z " fill="#0974DD" transform="translate(356,210)"/>
<path d="M0 0 C1.32 0.33 2.64 0.66 4 1 C4 1.99 4 2.98 4 4 C3.01 4.33 2.02 4.66 1 5 C1.99 5 2.98 5 4 5 C4 5.99 4 6.98 4 8 C3.01 8 2.02 8 1 8 C1 7.34 1 6.68 1 6 C-0.98 5.34 -2.96 4.68 -5 4 C-4.360625 3.71125 -3.72125 3.4225 -3.0625 3.125 C-0.84793921 2.17176549 -0.84793921 2.17176549 0 0 Z " fill="#167EDF" transform="translate(397,263)"/>
<path d="M0 0 C1.65 0 3.3 0 5 0 C5.33 1.65 5.66 3.3 6 5 C5.34 5 4.68 5 4 5 C4 4.34 4 3.68 4 3 C3.01 3.495 3.01 3.495 2 4 C2 5.65 2 7.3 2 9 C1.01 9 0.02 9 -1 9 C-0.67 6.03 -0.34 3.06 0 0 Z " fill="#3C4247" transform="translate(156,234)"/>
<path d="M0 0 C1.5778125 0.2475 1.5778125 0.2475 3.1875 0.5 C3.1875 0.83 3.1875 1.16 3.1875 1.5 C1.5375 1.5 -0.1125 1.5 -1.8125 1.5 C-2.4725 4.14 -3.1325 6.78 -3.8125 9.5 C-5.4625 9.17 -7.1125 8.84 -8.8125 8.5 C-5.01381291 0.65754923 -5.01381291 0.65754923 0 0 Z " fill="#1D2630" transform="translate(354.8125,268.5)"/>
<path d="M0 0 C1.6168484 3.23369679 0.00851816 6.30628257 -0.9375 9.625 C-1.13279297 10.33140625 -1.32808594 11.0378125 -1.52929688 11.765625 C-2.01314492 13.51219844 -2.50575123 15.25634124 -3 17 C-3.33 17 -3.66 17 -4 17 C-4.33 14.36 -4.66 11.72 -5 9 C-4.67 9 -4.34 9 -4 9 C-3.71125 8.071875 -3.4225 7.14375 -3.125 6.1875 C-2 3 -2 3 0 0 Z " fill="#4695DD" transform="translate(420,255)"/>
<path d="M0 0 C0.66 0 1.32 0 2 0 C2.33 1.32 2.66 2.64 3 4 C1.7934375 4.804375 1.7934375 4.804375 0.5625 5.625 C-2.46508424 8.43105369 -2.72510809 9.96825194 -3 14 C-3.33 14 -3.66 14 -4 14 C-4.28571429 5.42857143 -4.28571429 5.42857143 -2 2 C-1.34 2 -0.68 2 0 2 C0 1.34 0 0.68 0 0 Z " fill="#61666C" transform="translate(166,218)"/>
<path d="M0 0 C0.66 0 1.32 0 2 0 C1.67372714 3.01802393 1.38918764 4.59691281 -0.75 6.8125 C-3.37152557 8.19608294 -5.07674878 8.24360427 -8 8 C-8 7.34 -8 6.68 -8 6 C-7.05125 5.566875 -6.1025 5.13375 -5.125 4.6875 C-1.79958063 3.20697799 -1.79958063 3.20697799 0 0 Z " fill="#4E545A" transform="translate(243,262)"/>
<path d="M0 0 C0.33 0 0.66 0 1 0 C1 4.62 1 9.24 1 14 C1.66 14.33 2.32 14.66 3 15 C0.42786866 16.61949011 -0.67669159 17.04408751 -3.75 16.625 C-4.4925 16.41875 -5.235 16.2125 -6 16 C-4.7934375 15.1028125 -4.7934375 15.1028125 -3.5625 14.1875 C0.35490427 10.38075687 -0.09927877 5.15347066 0 0 Z " fill="#777D81" transform="translate(139,251)"/>
<path d="M0 0 C0.33 0 0.66 0 1 0 C1 2.97 1 5.94 1 9 C1.66 9 2.32 9 3 9 C3 9.66 3 10.32 3 11 C2.34 11 1.68 11 1 11 C0.67 12.32 0.34 13.64 0 15 C-1.32 14.67 -2.64 14.34 -4 14 C-4 13.01 -4 12.02 -4 11 C-3.01 11 -2.02 11 -1 11 C-0.67 7.37 -0.34 3.74 0 0 Z " fill="#212A32" transform="translate(89,224)"/>
<path d="M0 0 C2.56896554 0.61655173 5.08773748 1.31881961 7.625 2.0625 C10.73737446 3.08921462 10.73737446 3.08921462 13 3 C13 3.66 13 4.32 13 5 C9.37 5 5.74 5 2 5 C2 3.68 2 2.36 2 1 C1.34 0.67 0.68 0.34 0 0 Z " fill="#1A2027" transform="translate(242,273)"/>
<path d="M0 0 C1.98 0 3.96 0 6 0 C6.33 1.65 6.66 3.3 7 5 C6.34 4.67 5.68 4.34 5 4 C1.46981203 3.84651357 -1.61527952 3.95854754 -5 5 C-3.625 3.5 -3.625 3.5 -2 2 C-1.34 2 -0.68 2 0 2 C0 1.34 0 0.68 0 0 Z " fill="#233135" transform="translate(354,238)"/>
<path d="M0 0 C0.66 0 1.32 0 2 0 C2 0.66 2 1.32 2 2 C2.99 2.33 3.98 2.66 5 3 C4.67 4.65 4.34 6.3 4 8 C3.67 7.34 3.34 6.68 3 6 C0.97536745 5.34786708 0.97536745 5.34786708 -1 5 C-0.67 3.35 -0.34 1.7 0 0 Z " fill="#232B32" transform="translate(158,237)"/>
<path d="M0 0 C1.98 0 3.96 0 6 0 C6.33 0.99 6.66 1.98 7 3 C4.35261084 4.4606285 3.10551666 5 0 5 C0 3.35 0 1.7 0 0 Z " fill="#282F36" transform="translate(177,216)"/>
<path d="M0 0 C0.33 0.66 0.66 1.32 1 2 C1.99 2.33 2.98 2.66 4 3 C-3.21225383 6.25601751 -3.21225383 6.25601751 -6.5 5.1875 C-6.995 4.795625 -7.49 4.40375 -8 4 C-7.34 3.01 -6.68 2.02 -6 1 C-4.68 1.66 -3.36 2.32 -2 3 C-2 2.34 -2 1.68 -2 1 C-1.34 0.67 -0.68 0.34 0 0 Z " fill="#464E56" transform="translate(73,241)"/>
<path d="M0 0 C2.31 0.66 4.62 1.32 7 2 C7 2.66 7 3.32 7 4 C5.68 3.67 4.36 3.34 3 3 C2.67 3.66 2.34 4.32 2 5 C0.68 4.34 -0.64 3.68 -2 3 C-1.34 2.01 -0.68 1.02 0 0 Z " fill="#232F39" transform="translate(111,258)"/>
<path d="M0 0 C2.31 0 4.62 0 7 0 C6.1646875 0.37125 6.1646875 0.37125 5.3125 0.75 C1.76614378 2.66694931 -1.15738803 5.15738803 -4 8 C-4 7.34 -4 6.68 -4 6 C-4.66 5.67 -5.32 5.34 -6 5 C-5.195625 4.731875 -4.39125 4.46375 -3.5625 4.1875 C-2.716875 3.795625 -1.87125 3.40375 -1 3 C-0.67 2.01 -0.34 1.02 0 0 Z " fill="#72777B" transform="translate(122,243)"/>
<path d="M0 0 C2.31 0 4.62 0 7 0 C7 0.33 7 0.66 7 1 C5.35 1.33 3.7 1.66 2 2 C2.33 4.31 2.66 6.62 3 9 C2.34 9 1.68 9 1 9 C-0.61949011 6.42786866 -1.04408751 5.32330841 -0.625 2.25 C-0.41875 1.5075 -0.2125 0.765 0 0 Z " fill="#73A8DE" transform="translate(355,282)"/>
<path d="M0 0 C0.33 1.32 0.66 2.64 1 4 C2.65 4 4.3 4 6 4 C5.67 4.99 5.34 5.98 5 7 C3.35 6.67 1.7 6.34 0 6 C-0.38218767 4.34385343 -0.71395102 2.67542976 -1 1 C-0.67 0.67 -0.34 0.34 0 0 Z " fill="#579ADC" transform="translate(426,267)"/>
<path d="M0 0 C0.79921875 0.00902344 1.5984375 0.01804688 2.421875 0.02734375 C3.02515625 0.03894531 3.6284375 0.05054688 4.25 0.0625 C4.25 0.3925 4.25 0.7225 4.25 1.0625 C2.27 1.3925 0.29 1.7225 -1.75 2.0625 C-2.08 3.0525 -2.41 4.0425 -2.75 5.0625 C-3.74 5.0625 -4.73 5.0625 -5.75 5.0625 C-5.75 4.4025 -5.75 3.7425 -5.75 3.0625 C-6.74 2.4025 -7.73 1.7425 -8.75 1.0625 C-5.75519083 0.1901588 -3.11424089 -0.04579766 0 0 Z " fill="#70787F" transform="translate(234.75,249.9375)"/>
<path d="M0 0 C3.63 0 7.26 0 11 0 C10.67 1.32 10.34 2.64 10 4 C9.01 4 8.02 4 7 4 C6.67 3.34 6.34 2.68 6 2 C2.97065509 1.34227572 2.97065509 1.34227572 0 1 C0 0.67 0 0.34 0 0 Z " fill="#232C33" transform="translate(122,233)"/>
<path d="M0 0 C-0.33 0.99 -0.66 1.98 -1 3 C-4.3 3 -7.6 3 -11 3 C-11 2.34 -11 1.68 -11 1 C-9.54182203 0.83197949 -8.0834516 0.66562857 -6.625 0.5 C-5.81289063 0.4071875 -5.00078125 0.314375 -4.1640625 0.21875 C-2 0 -2 0 0 0 Z " fill="#4088D2" transform="translate(452,292)"/>
<path d="M0 0 C0 0.66 0 1.32 0 2 C-3.63 2 -7.26 2 -11 2 C-11 1.34 -11 0.68 -11 0 C-3.57142857 -1.28571429 -3.57142857 -1.28571429 0 0 Z " fill="#161C21" transform="translate(300,276)"/>
<path d="M0 0 C0.66 0.33 1.32 0.66 2 1 C1.01 2.485 1.01 2.485 0 4 C-0.66 4 -1.32 4 -2 4 C-2 4.66 -2 5.32 -2 6 C-3.65 6 -5.3 6 -7 6 C-7.33 5.34 -7.66 4.68 -8 4 C-7.4225 3.896875 -6.845 3.79375 -6.25 3.6875 C-3.67950842 2.90207202 -2.06342716 1.69495803 0 0 Z " fill="#212B33" transform="translate(126,272)"/>
<path d="M0 0 C2.475 0.495 2.475 0.495 5 1 C4.67 2.32 4.34 3.64 4 5 C2.68 5 1.36 5 0 5 C0 3.35 0 1.7 0 0 Z " fill="#047AEF" transform="translate(392,261)"/>
<path d="M0 0 C2.97 0 5.94 0 9 0 C9 0.33 9 0.66 9 1 C7.02 1 5.04 1 3 1 C3 2.32 3 3.64 3 5 C2.01 5.33 1.02 5.66 0 6 C-0.66 5.67 -1.32 5.34 -2 5 C-2 4.34 -2 3.68 -2 3 C-1.01 2.67 -0.02 2.34 1 2 C0.67 1.34 0.34 0.68 0 0 Z " fill="#51585F" transform="translate(174,215)"/>
<path d="M0 0 C1.0725 0.309375 2.145 0.61875 3.25 0.9375 C5.82866222 1.66812096 8.39512102 2.37482904 11 3 C11 3.33 11 3.66 11 4 C3.52908757 5.34721372 3.52908757 5.34721372 1 3.6875 C0 2 0 2 0 0 Z " fill="#555B62" transform="translate(71,265)"/>
<path d="M0 0 C1.65 0 3.3 0 5 0 C4.67 1.65 4.34 3.3 4 5 C2.68 4.67 1.36 4.34 0 4 C0 2.68 0 1.36 0 0 Z " fill="#0578EE" transform="translate(429,265)"/>
<path d="M0 0 C0.33 0.66 0.66 1.32 1 2 C0.525625 2.5775 0.05125 3.155 -0.4375 3.75 C-1.9484867 5.92582084 -2.54036151 7.42602448 -3 10 C-3.66 10 -4.32 10 -5 10 C-5.3125 7.8125 -5.3125 7.8125 -5 5 C-2.5 2.1875 -2.5 2.1875 0 0 Z " fill="#69A4D8" transform="translate(394,254)"/>
<path d="M0 0 C0.66 0.66 1.32 1.32 2 2 C3.32 2.66 4.64 3.32 6 4 C2.7 4.33 -0.6 4.66 -4 5 C-4 4.34 -4 3.68 -4 3 C-2 1.375 -2 1.375 0 0 Z " fill="#51595E" transform="translate(234,255)"/>
<path d="M0 0 C-1.17255709 3.33727786 -2.18868404 5.77437487 -5 8 C-5.66 8 -6.32 8 -7 8 C-4.18918919 0 -4.18918919 0 0 0 Z " fill="#4C93DC" transform="translate(362,202)"/>
<path d="M0 0 C3.26460973 1.80412643 4.88929795 2.83394693 7 6 C6.625 8.1875 6.625 8.1875 6 10 C6 9.01 6 8.02 6 7 C5.34 7 4.68 7 4 7 C1.875 5.1875 1.875 5.1875 0 3 C0 2.01 0 1.02 0 0 Z " fill="#5094DC" transform="translate(450,202)"/>
<path d="M0 0 C0.33 0.99 0.66 1.98 1 3 C1.66 3.33 2.32 3.66 3 4 C-0.3 4 -3.6 4 -7 4 C-6.01 3.67 -5.02 3.34 -4 3 C-4 2.34 -4 1.68 -4 1 C-2.68 0.67 -1.36 0.34 0 0 Z " fill="#4B5157" transform="translate(128,275)"/>
<path d="M0 0 C0.33 0 0.66 0 1 0 C1.3125 2.25 1.3125 2.25 1 5 C-1.5 7.3125 -1.5 7.3125 -4 9 C-4 7.35 -4 5.7 -4 4 C-3.01 4 -2.02 4 -1 4 C-0.67 2.68 -0.34 1.36 0 0 Z " fill="#4E99DD" transform="translate(440,259)"/>
<path d="M0 0 C1.98 1.65 3.96 3.3 6 5 C2.98968256 5.93423645 2.13349732 6.04449911 -1 5 C-0.67 3.35 -0.34 1.7 0 0 Z " fill="#4797DF" transform="translate(434,253)"/>
<path d="M0 0 C0.33 0 0.66 0 1 0 C1 2.64 1 5.28 1 8 C0.34 8 -0.32 8 -1 8 C-2.625 6 -2.625 6 -4 4 C-3.34 4 -2.68 4 -2 4 C-2 3.34 -2 2.68 -2 2 C-1.34 2 -0.68 2 0 2 C0 1.34 0 0.68 0 0 Z " fill="#1D252C" transform="translate(173,254)"/>
<path d="M0 0 C0.33 0.99 0.66 1.98 1 3 C0.01 3 -0.98 3 -2 3 C-2.33 3.99 -2.66 4.98 -3 6 C-3.99 6.33 -4.98 6.66 -6 7 C-5.8125 5.1875 -5.8125 5.1875 -5 3 C-2.4375 1.25 -2.4375 1.25 0 0 Z " fill="#308ADA" transform="translate(401,249)"/>
<path d="M0 0 C2.64 0 5.28 0 8 0 C6.35 1.65 4.7 3.3 3 5 C1.68 4.34 0.36 3.68 -1 3 C-0.67 2.01 -0.34 1.02 0 0 Z " fill="#4E555C" transform="translate(299,243)"/>
<path d="M0 0 C2.6875 0.875 2.6875 0.875 5 2 C4.67 3.98 4.34 5.96 4 8 C2 5 2 5 2 3 C0.35 2.67 -1.3 2.34 -3 2 C-2.01 1.34 -1.02 0.68 0 0 Z " fill="#70787C" transform="translate(240,241)"/>
<path d="M0 0 C1.32 0.33 2.64 0.66 4 1 C3.01 1.495 3.01 1.495 2 2 C1.67 2.99 1.34 3.98 1 5 C-0.65 5 -2.3 5 -4 5 C-3.34 4.67 -2.68 4.34 -2 4 C-0.86649466 1.98330173 -0.86649466 1.98330173 0 0 Z " fill="#323E46" transform="translate(366,237)"/>
<path d="M0 0 C0.66 0 1.32 0 2 0 C0.7508258 3.45925163 -0.67527795 6.14693203 -3 9 C-3.33 8.01 -3.66 7.02 -4 6 C-2.1875 2.8125 -2.1875 2.8125 0 0 Z " fill="#4D525A" transform="translate(337,238)"/>
<path d="M0 0 C0.33 0.66 0.66 1.32 1 2 C2.98 1.67 4.96 1.34 7 1 C7.33 1.99 7.66 2.98 8 4 C5.36 4 2.72 4 0 4 C0 2.68 0 1.36 0 0 Z " fill="#1B2329" transform="translate(163,274)"/>
<path d="M0 0 C0.66 0 1.32 0 2 0 C2.6875 2.3125 2.6875 2.3125 3 5 C1.5625 6.8125 1.5625 6.8125 0 8 C-0.38063221 5.6739143 -0.71269945 3.33944736 -1 1 C-0.67 0.67 -0.34 0.34 0 0 Z " fill="#41464D" transform="translate(106,259)"/>
<path d="M0 0 C2.31 0.33 4.62 0.66 7 1 C4 3 4 3 2 3 C1.67 3.66 1.34 4.32 1 5 C0.01 4.34 -0.98 3.68 -2 3 C-1.34 2.01 -0.68 1.02 0 0 Z " fill="#5C6369" transform="translate(228,241)"/>
<path d="M0 0 C2.31 0 4.62 0 7 0 C6.01 0.66 5.02 1.32 4 2 C3.67 2.99 3.34 3.98 3 5 C2.01 5 1.02 5 0 5 C0 3.35 0 1.7 0 0 Z " fill="#1C80E6" transform="translate(360,207)"/>
<path d="M0 0 C0.99 0 1.98 0 3 0 C2.67 1.65 2.34 3.3 2 5 C0.35 4.67 -1.3 4.34 -3 4 C-1.6875 2 -1.6875 2 0 0 Z " fill="#047AED" transform="translate(399,252)"/>
<path d="M0 0 C-0.61875 0.0825 -1.2375 0.165 -1.875 0.25 C-4.18437567 0.81258459 -4.18437567 0.81258459 -5.25 3.0625 C-5.4975 3.701875 -5.745 4.34125 -6 5 C-6 4.34 -6 3.68 -6 3 C-6.66 3 -7.32 3 -8 3 C-8 2.34 -8 1.68 -8 1 C-4.93251126 -0.86240388 -3.40254489 -1.2151946 0 0 Z " fill="#4F555B" transform="translate(351,244)"/>
<path d="M0 0 C0.33 0.66 0.66 1.32 1 2 C0.34 2 -0.32 2 -1 2 C-1.33 2.99 -1.66 3.98 -2 5 C-3.32 4.67 -4.64 4.34 -6 4 C-4 1 -4 1 -1.875 0.3125 C-1.25625 0.209375 -0.6375 0.10625 0 0 Z " fill="#232D36" transform="translate(284,238)"/>
<path d="M0 0 C2.79872437 2.52788007 4.45773019 4.20411134 5 8 C4.01 7.67 3.02 7.34 2 7 C2 6.01 2 5.02 2 4 C1.34 4 0.68 4 0 4 C0 2.68 0 1.36 0 0 Z " fill="#575B60" transform="translate(370,239)"/>
<path d="M0 0 C0.66 0.33 1.32 0.66 2 1 C1.34 2.65 0.68 4.3 0 6 C-1.32 5.34 -2.64 4.68 -4 4 C-2.68 2.68 -1.36 1.36 0 0 Z " fill="#3E454B" transform="translate(62,235)"/>
<path d="M0 0 C-0.6875 1.9375 -0.6875 1.9375 -2 4 C-4.625 4.75 -4.625 4.75 -7 5 C-2.25 0 -2.25 0 0 0 Z " fill="#5C686D" transform="translate(117,234)"/>
<path d="M0 0 C2.97 0.33 5.94 0.66 9 1 C5.1496895 3.56687367 3.41430237 2.83288724 -1 2 C-0.67 1.34 -0.34 0.68 0 0 Z " fill="#5C5F62" transform="translate(309,231)"/>
</svg>
